HIERARCHY
ROOT root     
{
	OFFSET 0.0000 0.0000 0.0000
	CHANNELS 6 Xposition Yposition Zposition Zrotation Yrotation Xrotation
	JOINT pelvis   
	{
		OFFSET 0.0000 0.0000 0.0000
		CHANNELS 3 Zrotation Yrotation Xrotation
		JOINT thorax   
		{
			OFFSET 0.0000 23.0750 -5.0000
			CHANNELS 3 Zrotation Yrotation Xrotation
			JOINT rclavicle
			{
				OFFSET 0.0000 28.0009 0.0000
				CHANNELS 3 Zrotation Yrotation Xrotation
				JOINT rhumerus 
				{
					OFFSET -18.5725 5.5939 0.0000
					CHANNELS 3 Zrotation Yrotation Xrotation
					JOINT rradius  
					{
						OFFSET -24.8459 0.0000 0.0000
						CHANNELS 3 Zrotation Yrotation Xrotation
						JOINT rhand    
						{
							OFFSET -24.5477 0.0000 0.0000
							CHANNELS 3 Zrotation Yrotation Xrotation
							End Site
							{
								OFFSET -8.1826 0.0000 0.0000
							}
						}
					}
				}
			}
			JOINT lclavicle
			{
				OFFSET 0.0000 28.0009 0.0000
				CHANNELS 3 Zrotation Yrotation Xrotation
				JOINT lhumerus 
				{
					OFFSET 18.5725 5.5939 0.0000
					CHANNELS 3 Zrotation Yrotation Xrotation
					JOINT lradius  
					{
						OFFSET 24.8459 0.0000 0.0000
						CHANNELS 3 Zrotation Yrotation Xrotation
						JOINT lhand    
						{
							OFFSET 24.5477 0.0000 0.0000
							CHANNELS 3 Zrotation Yrotation Xrotation
							End Site
							{
								OFFSET 8.1826 0.0000 0.0000
							}
						}
					}
				}
			}
			JOINT head     
			{
				OFFSET 0.0000 35.2030 0.0000
				CHANNELS 3 Zrotation Yrotation Xrotation
				End Site
				{
					OFFSET 0.0000 11.7343 0.0000
				}
			}
		}
		JOINT rfemur   
		{
			OFFSET -8.2817 0.0000 0.0000
			CHANNELS 3 Zrotation Yrotation Xrotation
			JOINT rtibia   
			{
				OFFSET 0.0000 -43.3627 0.0000
				CHANNELS 3 Zrotation Yrotation Xrotation
				JOINT rfoot    
				{
					OFFSET 0.0000 -38.2947 0.0000
					CHANNELS 3 Zrotation Yrotation Xrotation
					JOINT rtoes    
					{
						OFFSET 0.0000 0.0000 16.6054
						CHANNELS 3 Zrotation Yrotation Xrotation
						End Site
						{
							OFFSET 0.0000 0.0000 5.5351
						}
					}
				}
			}
		}
		JOINT lfemur   
		{
			OFFSET 8.2817 0.0000 0.0000
			CHANNELS 3 Zrotation Yrotation Xrotation
			JOINT ltibia   
			{
				OFFSET 0.0000 -43.3627 0.0000
				CHANNELS 3 Zrotation Yrotation Xrotation
				JOINT lfoot    
				{
					OFFSET 0.0000 -38.2947 0.0000
					CHANNELS 3 Zrotation Yrotation Xrotation
					JOINT ltoes    
					{
						OFFSET 0.0000 0.0000 16.6054
						CHANNELS 3 Zrotation Yrotation Xrotation
						End Site
						{
							OFFSET 0.0000 0.0000 5.5351
						}
					}
				}
			}
		}
	}
}
MOTION
Frames: 8
Frame Time: .0333333
31.625 86.534 6.2397 -177.12 -59.7796 -171.357 0 -0 0 5.87163 -20.6642 -11.807 16.3723 -3.35033 1.33455e-05 68.5684 50.6282 10.5885 180 56.0221 180 -22.3076 23.6049 -4.71848 -13.1864 -4.01413 1.19007e-07 -30.2197 -27.117 -19.7899 0 -21.7702 -0 5.76248 5.23642 0.263694 7.06061 15.925 5.16678 -5.1761 11.2413 -14.6746 -0 -0 2.45554 4.03992e-05 8.39343 13.6862 1.99934 2.25799e-05 -42.1813 -3.2502 38.2344 -8.3411 -0 -0 5.09359 -3.27799e-06 12.6161 4.21908 0.94341 2.44424e-06 -24.6104 
31.631 86.519 6.2453 -177.247 -59.5284 -171.292 0 -0 0 5.59349 -20.0905 -11.558 16.1373 -3.34448 -6.61033e-06 68.4248 50.2975 10.2173 180 55.7899 180 -22.581 23.5114 -4.75815 -14.3232 -3.46841 3.19131e-06 -31.6614 -26.3257 -18.8286 0 -24.3432 -0 5.22507 5.20904 0.237801 6.75395 15.4765 4.92995 -5.2354 11.2958 -14.7037 -0 -0 2.50987 5.46088e-06 8.5908 13.652 2.04213 2.51829e-05 -42.2438 -3.2819 38.2054 -8.39851 -0 -0 5.39733 1.97859e-05 12.8959 4.06303 0.92941 -8.55999e-06 -24.5518 
31.643 86.508 6.2498 -177.361 -59.2641 -171.21 0 -0 0 5.31859 -19.486 -11.3504 15.8908 -3.32921 -2.10293e-05 68.3171 49.965 9.86927 -180 55.5812 -180 -22.8134 23.4078 -4.78663 -15.3025 -2.88469 -6.24084e-06 -33.1106 -25.5794 -17.9271 0 -26.8922 -0 4.75657 5.45675 0.2268 6.43394 15.0191 4.75193 -5.29235 11.3514 -14.7768 -0 -0 2.58079 2.40505e-05 8.79661 13.6284 2.08828 1.94799e-05 -42.3004 -3.33719 38.2161 -8.49007 -0 -0 5.67797 1.03697e-05 13.1504 3.93073 0.917495 -2.3709e-06 -24.4961 
31.662 86.502 6.253 -177.462 -58.995 -171.116 0 -0 0 5.05033 -18.8576 -11.1859 15.6394 -3.30681 -8.90433e-06 68.2398 49.6387 9.54815 180 55.3993 180 -22.9965 23.3004 -4.80341 -16.1428 -2.28205 -3.24778e-06 -34.5509 -24.8603 -17.0774 1.7632e-07 -29.4631 -6.7059e-07 4.44832 5.92576 0.230401 6.09513 14.561 4.6414 -5.34549 11.4087 -14.882 -0 -0 2.65946 3.26402e-05 9.00376 13.6162 2.13625 1.32335e-05 -42.3433 -3.41081 38.2646 -8.60558 -0 -0 5.92673 7.34995e-08 13.3774 3.82477 0.908795 2.71032e-06 -24.4422 
31.684 86.499 6.2545 -177.549 -58.7325 -171.016 0 -0 0 4.78793 -18.2141 -11.0634 15.3987 -3.2752 2.20904e-06 68.1723 49.3285 9.24575 180 55.2599 180 -23.1276 23.203 -4.81077 -16.8548 -1.73029 7.23264e-06 -35.9661 -24.0636 -16.2946 0 -32.1506 -0 4.36587 6.54316 0.249696 5.73633 14.1141 4.60549 -5.39388 11.4647 -15.0059 -0 -0 2.73778 2.81392e-05 9.20574 13.6147 2.18465 4.05196e-06 -42.3614 -3.49436 38.3326 -8.73049 -0 -0 6.13524 1.33192e-05 13.5826 3.74651 0.904387 5.82744e-06 -24.3883 
31.708 86.499 6.2534 -177.619 -58.484 -170.921 0 -0 0 4.53156 -17.5659 -10.9732 15.1697 -3.24019 4.07803e-06 68.1166 49.04 8.96369 -180 55.1566 -180 -23.2036 23.1128 -4.8077 -17.4692 -1.1995 -4.70613e-06 -37.3234 -23.2592 -15.5779 2.21104e-07 -34.9416 -7.025e-07 4.54298 7.20264 0.286105 5.36011 13.6883 4.63765 -5.43558 11.5225 -15.1325 -0 -0 2.80457 3.32038e-05 9.39054 13.6257 2.231 2.10929e-05 -42.3619 -3.57885 38.4143 -8.85437 -0 -0 6.30497 2.11466e-05 13.7613 3.69247 0.903596 -2.37422e-06 -24.3333 
31.733 86.501 6.2495 -177.674 -58.2683 -170.837 0 -0 0 4.27976 -16.9281 -10.9045 14.9576 -3.20324 5.72237e-06 68.0622 48.7797 8.69937 180 55.0919 180 -23.2319 23.0323 -4.79655 -18.0068 -0.7025 -1.14025e-06 -38.6062 -22.4399 -14.9355 0 -37.8644 -0 4.98216 7.79988 0.339894 4.97184 13.2914 4.72984 -5.46891 11.5796 -15.2464 -0 -0 2.85214 2.57223e-05 9.54855 13.6472 2.27277 1.62835e-07 -42.3403 -3.65436 38.4942 -8.9656 -0 -0 6.43741 -7.0175e-06 13.916 3.65885 0.905887 5.49524e-06 -24.2803 
31.756 86.506 6.2424 -177.712 -58.0908 -170.774 0 -0 0 4.03178 -16.3146 -10.8494 14.7728 -3.1615 7.83982e-06 67.9927 48.5527 8.441 180 55.0709 180 -23.2169 22.9674 -4.77954 -18.4731 -0.274302 -1.0955e-06 -39.8023 -21.5663 -14.3971 0 -40.9528 -0 5.65162 8.24005 0.407403 4.58076 12.9308 4.87277 -5.49193 11.6331 -15.331 -0 -0 2.87548 -9.86791e-05 9.67255 13.6762 2.30785 1.8221e-05 -42.2959 -3.71072 38.5519 -9.05278 -0 -0 6.53546 1.03634e-05 14.0534 3.64193 0.910903 -5.14974e-06 -24.228 
